<svg width="14" height="13" viewBox="0 0 14 13" fill="none" xmlns="http://www.w3.org/2000/svg">
<path d="M1.16158 11.3293C0.845171 11.6457 0.830104 12.2107 1.16911 12.5422C1.50058 12.8736 2.06559 12.8661 2.382 12.5497L6.99249 7.93167L11.6105 12.5497C11.9345 12.8736 12.4919 12.8736 12.8234 12.5422C13.1473 12.2032 13.1549 11.6532 12.8234 11.3293L8.21292 6.71124L12.8234 2.10075C13.1549 1.77681 13.1549 1.21933 12.8234 0.88786C12.4844 0.563921 11.9345 0.556387 11.6105 0.880327L6.99249 5.49835L2.382 0.880327C2.06559 0.563921 1.49305 0.548854 1.16911 0.88786C0.837637 1.21933 0.845171 1.78434 1.16158 2.10075L5.7796 6.71124L1.16158 11.3293Z" fill="black"/>
</svg>
