<svg width="14" height="14" viewBox="0 0 14 14" fill="none" xmlns="http://www.w3.org/2000/svg">
<path d="M1.54577 7.56238H6.14119V12.1578C6.14119 12.6249 6.5254 13.0166 7.00001 13.0166C7.47462 13.0166 7.85882 12.6249 7.85882 12.1578V7.56238H12.4542C12.9213 7.56238 13.3131 7.17817 13.3131 6.70356C13.3131 6.22895 12.9213 5.84474 12.4542 5.84474H7.85882V1.24932C7.85882 0.782244 7.47462 0.390503 7.00001 0.390503C6.5254 0.390503 6.14119 0.782244 6.14119 1.24932V5.84474H1.54577C1.07869 5.84474 0.686951 6.22895 0.686951 6.70356C0.686951 7.17817 1.07869 7.56238 1.54577 7.56238Z" fill="black"/>
</svg>
