<svg width="18" height="17" viewBox="0 0 18 17" fill="none" xmlns="http://www.w3.org/2000/svg">
<g clip-path="url(#clip0_1_2371)">
<path d="M9.06814 1.52931C11.337 1.52931 11.6057 1.53926 12.498 1.57906C13.3273 1.61555 13.7751 1.75487 14.0736 1.87097C14.4684 2.02355 14.7536 2.20931 15.0489 2.50453C15.3474 2.80307 15.5299 3.08503 15.6824 3.47976C15.7985 3.7783 15.9379 4.22943 15.9743 5.05539C16.0141 5.951 16.0241 6.21969 16.0241 8.48527C16.0241 10.7542 16.0141 11.0229 15.9743 11.9152C15.9379 12.7444 15.7985 13.1922 15.6824 13.4908C15.5299 13.8855 15.3441 14.1708 15.0489 14.466C14.7503 14.7645 14.4684 14.947 14.0736 15.0996C13.7751 15.2157 13.324 15.355 12.498 15.3915C11.6024 15.4313 11.3337 15.4412 9.06814 15.4412C6.79924 15.4412 6.53055 15.4313 5.63825 15.3915C4.80898 15.355 4.36117 15.2157 4.06263 15.0996C3.66789 14.947 3.38262 14.7612 3.0874 14.466C2.78886 14.1675 2.60642 13.8855 2.45383 13.4908C2.33774 13.1922 2.19842 12.7411 2.16193 11.9152C2.12212 11.0195 2.11217 10.7509 2.11217 8.48527C2.11217 6.21637 2.12212 5.94769 2.16193 5.05539C2.19842 4.22611 2.33774 3.7783 2.45383 3.47976C2.60642 3.08503 2.79218 2.79976 3.0874 2.50453C3.38594 2.20599 3.66789 2.02355 4.06263 1.87097C4.36117 1.75487 4.81229 1.61555 5.63825 1.57906C6.53055 1.53926 6.79924 1.52931 9.06814 1.52931ZM9.06814 0.00012207C6.76275 0.00012207 6.47416 0.0100734 5.56859 0.0498786C4.66634 0.0896838 4.04604 0.235636 3.50867 0.444614C2.94808 0.663542 2.47374 0.95213 2.00271 1.42648C1.52836 1.8975 1.23978 2.37185 1.02085 2.92912C0.811869 3.46981 0.665917 4.08679 0.626112 4.98904C0.586306 5.89793 0.576355 6.18652 0.576355 8.4919C0.576355 10.7973 0.586306 11.0859 0.626112 11.9914C0.665917 12.8937 0.811869 13.514 1.02085 14.0514C1.23978 14.612 1.52836 15.0863 2.00271 15.5573C2.47374 16.0284 2.94808 16.3203 3.50536 16.5359C4.04604 16.7449 4.66302 16.8908 5.56528 16.9306C6.47085 16.9704 6.75943 16.9804 9.06482 16.9804C11.3702 16.9804 11.6588 16.9704 12.5644 16.9306C13.4666 16.8908 14.0869 16.7449 14.6243 16.5359C15.1816 16.3203 15.6559 16.0284 16.1269 15.5573C16.598 15.0863 16.8899 14.612 17.1055 14.0547C17.3145 13.514 17.4604 12.897 17.5002 11.9948C17.54 11.0892 17.55 10.8006 17.55 8.49522C17.55 6.18984 17.54 5.90125 17.5002 4.99568C17.4604 4.09343 17.3145 3.47313 17.1055 2.93576C16.8965 2.37185 16.6079 1.8975 16.1336 1.42648C15.6625 0.955448 15.1882 0.663542 14.6309 0.447931C14.0902 0.238953 13.4732 0.0930009 12.571 0.0531957C11.6621 0.0100734 11.3735 0.00012207 9.06814 0.00012207Z" fill="black"/>
<path d="M9.06811 4.13C6.65989 4.13 4.70612 6.08378 4.70612 8.49199C4.70612 10.9002 6.65989 12.854 9.06811 12.854C11.4763 12.854 13.4301 10.9002 13.4301 8.49199C13.4301 6.08378 11.4763 4.13 9.06811 4.13ZM9.06811 11.3215C7.50575 11.3215 6.23862 10.0543 6.23862 8.49199C6.23862 6.92964 7.50575 5.66251 9.06811 5.66251C10.6305 5.66251 11.8976 6.92964 11.8976 8.49199C11.8976 10.0543 10.6305 11.3215 9.06811 11.3215Z" fill="black"/>
<path d="M14.6209 3.95738C14.6209 4.52129 14.1632 4.97573 13.6026 4.97573C13.0387 4.97573 12.5842 4.51797 12.5842 3.95738C12.5842 3.39347 13.042 2.93903 13.6026 2.93903C14.1632 2.93903 14.6209 3.39679 14.6209 3.95738Z" fill="black"/>
</g>
<defs>
<clipPath id="clip0_1_2371">
<rect width="16.9836" height="16.9836" fill="white" transform="translate(0.576355 0.00012207)"/>
</clipPath>
</defs>
</svg>
