<svg width="113" height="46" viewBox="0 0 113 46" fill="none" xmlns="http://www.w3.org/2000/svg">
<path d="M51.2736 25.5971V31H50.3874V27.2996L48.7393 31H48.1252L46.4693 27.2996V31H45.5831V25.5971H46.5393L48.4361 29.8339L50.3252 25.5971H51.2736ZM56.3643 28.7533C56.3643 28.914 56.354 29.0591 56.3332 29.1887H53.0604C53.0863 29.5307 53.2133 29.8054 53.4413 30.0127C53.6693 30.22 53.9492 30.3237 54.2809 30.3237C54.7577 30.3237 55.0946 30.1241 55.2915 29.7251H56.2477C56.1182 30.1189 55.8823 30.4429 55.5403 30.6968C55.2034 30.9456 54.7836 31.07 54.2809 31.07C53.8715 31.07 53.5035 30.9793 53.177 30.7979C52.8557 30.6113 52.6017 30.3522 52.4151 30.0205C52.2337 29.6836 52.143 29.2949 52.143 28.8544C52.143 28.4138 52.2311 28.0277 52.4074 27.696C52.5888 27.3592 52.8401 27.1 53.1614 26.9186C53.4879 26.7373 53.8611 26.6466 54.2809 26.6466C54.6851 26.6466 55.0453 26.7347 55.3615 26.9109C55.6776 27.0871 55.9238 27.3358 56.1 27.6572C56.2762 27.9733 56.3643 28.3387 56.3643 28.7533ZM55.4392 28.4734C55.434 28.1469 55.3174 27.8852 55.0894 27.6883C54.8614 27.4913 54.5789 27.3929 54.242 27.3929C53.9362 27.3929 53.6745 27.4913 53.4568 27.6883C53.2392 27.88 53.1096 28.1418 53.0681 28.4734H55.4392ZM62.4217 26.6466C62.7586 26.6466 63.0592 26.7165 63.3235 26.8565C63.593 26.9964 63.8029 27.2037 63.9532 27.4784C64.1087 27.7531 64.1864 28.0847 64.1864 28.4734V31H63.308V28.6056C63.308 28.2221 63.2121 27.9293 63.0203 27.7271C62.8286 27.5198 62.5669 27.4162 62.2352 27.4162C61.9035 27.4162 61.6392 27.5198 61.4422 27.7271C61.2505 27.9293 61.1546 28.2221 61.1546 28.6056V31H60.2761V28.6056C60.2761 28.2221 60.1802 27.9293 59.9885 27.7271C59.7967 27.5198 59.535 27.4162 59.2033 27.4162C58.8716 27.4162 58.6073 27.5198 58.4104 27.7271C58.2186 27.9293 58.1227 28.2221 58.1227 28.6056V31H57.2365V26.7165H58.1227V27.2063C58.2678 27.0301 58.4518 26.8927 58.6747 26.7943C58.8975 26.6958 59.1359 26.6466 59.3899 26.6466C59.7319 26.6466 60.0377 26.7191 60.3072 26.8642C60.5767 27.0093 60.784 27.2192 60.9291 27.4939C61.0587 27.2348 61.2608 27.0301 61.5355 26.8798C61.8102 26.7243 62.1056 26.6466 62.4217 26.6466ZM66.2004 27.354C66.3507 27.1467 66.5554 26.9782 66.8145 26.8487C67.0789 26.7139 67.3717 26.6466 67.693 26.6466C68.0713 26.6466 68.4134 26.7373 68.7192 26.9186C69.025 27.1 69.2659 27.3592 69.4422 27.696C69.6184 28.0277 69.7065 28.4087 69.7065 28.8388C69.7065 29.269 69.6184 29.6551 69.4422 29.9972C69.2659 30.334 69.0224 30.5983 68.7114 30.7901C68.4056 30.9767 68.0662 31.07 67.693 31.07C67.3613 31.07 67.0659 31.0052 66.8068 30.8756C66.5528 30.746 66.3507 30.5802 66.2004 30.3781V31H65.3142V25.2472H66.2004V27.354ZM68.8047 28.8388C68.8047 28.5434 68.7425 28.2895 68.6181 28.077C68.4989 27.8593 68.3383 27.696 68.1361 27.5872C67.9392 27.4732 67.7267 27.4162 67.4987 27.4162C67.2758 27.4162 67.0633 27.4732 66.8612 27.5872C66.6642 27.7012 66.5036 27.8671 66.3792 28.0847C66.26 28.3024 66.2004 28.559 66.2004 28.8544C66.2004 29.1498 66.26 29.4089 66.3792 29.6318C66.5036 29.8494 66.6642 30.0153 66.8612 30.1293C67.0633 30.2433 67.2758 30.3003 67.4987 30.3003C67.7267 30.3003 67.9392 30.2433 68.1361 30.1293C68.3383 30.0101 68.4989 29.8391 68.6181 29.6162C68.7425 29.3934 68.8047 29.1342 68.8047 28.8388ZM74.5088 28.7533C74.5088 28.914 74.4984 29.0591 74.4777 29.1887H71.2048C71.2307 29.5307 71.3577 29.8054 71.5857 30.0127C71.8138 30.22 72.0936 30.3237 72.4253 30.3237C72.9021 30.3237 73.239 30.1241 73.4359 29.7251H74.3921C74.2626 30.1189 74.0268 30.4429 73.6847 30.6968C73.3478 30.9456 72.928 31.07 72.4253 31.07C72.0159 31.07 71.6479 30.9793 71.3214 30.7979C71.0001 30.6113 70.7461 30.3522 70.5596 30.0205C70.3782 29.6836 70.2875 29.2949 70.2875 28.8544C70.2875 28.4138 70.3756 28.0277 70.5518 27.696C70.7332 27.3592 70.9845 27.1 71.3059 26.9186C71.6324 26.7373 72.0055 26.6466 72.4253 26.6466C72.8296 26.6466 73.1898 26.7347 73.5059 26.9109C73.822 27.0871 74.0682 27.3358 74.2444 27.6572C74.4206 27.9733 74.5088 28.3387 74.5088 28.7533ZM73.5836 28.4734C73.5785 28.1469 73.4619 27.8852 73.2338 27.6883C73.0058 27.4913 72.7233 27.3929 72.3864 27.3929C72.0807 27.3929 71.8189 27.4913 71.6013 27.6883C71.3836 27.88 71.254 28.1418 71.2126 28.4734H73.5836ZM76.2671 27.3384C76.3967 27.1208 76.5677 26.9523 76.7802 26.8331C76.9979 26.7087 77.2544 26.6466 77.5498 26.6466V27.5639H77.3244C76.9772 27.5639 76.7128 27.652 76.5315 27.8282C76.3552 28.0044 76.2671 28.3102 76.2671 28.7455V31H75.3809V26.7165H76.2671V27.3384ZM82.2419 31.07C81.8376 31.07 81.4723 30.9793 81.1458 30.7979C80.8192 30.6113 80.5627 30.3522 80.3761 30.0205C80.1896 29.6836 80.0963 29.2949 80.0963 28.8544C80.0963 28.419 80.1921 28.0329 80.3839 27.696C80.5757 27.3592 80.8374 27.1 81.1691 26.9186C81.5008 26.7373 81.8713 26.6466 82.2808 26.6466C82.6902 26.6466 83.0608 26.7373 83.3924 26.9186C83.7241 27.1 83.9859 27.3592 84.1776 27.696C84.3694 28.0329 84.4653 28.419 84.4653 28.8544C84.4653 29.2897 84.3668 29.6758 84.1698 30.0127C83.9729 30.3496 83.7034 30.6113 83.3613 30.7979C83.0245 30.9793 82.6513 31.07 82.2419 31.07ZM82.2419 30.3003C82.4699 30.3003 82.6824 30.2459 82.8794 30.1371C83.0815 30.0282 83.2447 29.865 83.3691 29.6473C83.4935 29.4296 83.5557 29.1653 83.5557 28.8544C83.5557 28.5434 83.4961 28.2817 83.3769 28.0692C83.2577 27.8515 83.0996 27.6883 82.9027 27.5794C82.7057 27.4706 82.4932 27.4162 82.2652 27.4162C82.0372 27.4162 81.8247 27.4706 81.6277 27.5794C81.436 27.6883 81.2831 27.8515 81.1691 28.0692C81.0551 28.2817 80.998 28.5434 80.998 28.8544C80.998 29.3156 81.1147 29.6732 81.3479 29.9272C81.5863 30.176 81.8843 30.3003 82.2419 30.3003ZM87.1371 27.4395H86.3442V31H85.4502V27.4395H84.9449V26.7165H85.4502V26.4133C85.4502 25.921 85.5798 25.5634 85.8389 25.3405C86.1032 25.1125 86.5152 24.9985 87.075 24.9985V25.737C86.8055 25.737 86.6163 25.7888 86.5075 25.8925C86.3986 25.9909 86.3442 26.1646 86.3442 26.4133V26.7165H87.1371V27.4395ZM90.9759 27.4395V29.8106C90.9759 29.9712 91.0122 30.0878 91.0848 30.1604C91.1625 30.2278 91.2921 30.2615 91.4735 30.2615H92.0176V31H91.318C90.9189 31 90.6131 30.9067 90.4007 30.7201C90.1882 30.5336 90.0819 30.2304 90.0819 29.8106V27.4395H89.5766V26.7165H90.0819V25.6515H90.9759V26.7165H92.0176V27.4395H90.9759ZM95.0501 26.6466C95.3766 26.6466 95.6668 26.7165 95.9207 26.8565C96.1799 26.9964 96.382 27.2037 96.5271 27.4784C96.6774 27.7531 96.7526 28.0847 96.7526 28.4734V31H95.8741V28.6056C95.8741 28.2221 95.7782 27.9293 95.5865 27.7271C95.3947 27.5198 95.133 27.4162 94.8013 27.4162C94.4696 27.4162 94.2053 27.5198 94.0083 27.7271C93.8166 27.9293 93.7207 28.2221 93.7207 28.6056V31H92.8345V25.2472H93.7207V27.2141C93.871 27.0327 94.0602 26.8927 94.2882 26.7943C94.5214 26.6958 94.7754 26.6466 95.0501 26.6466ZM101.809 28.7533C101.809 28.914 101.799 29.0591 101.778 29.1887H98.5049C98.5309 29.5307 98.6578 29.8054 98.8859 30.0127C99.1139 30.22 99.3938 30.3237 99.7255 30.3237C100.202 30.3237 100.539 30.1241 100.736 29.7251H101.692C101.563 30.1189 101.327 30.4429 100.985 30.6968C100.648 30.9456 100.228 31.07 99.7255 31.07C99.316 31.07 98.9481 30.9793 98.6216 30.7979C98.3002 30.6113 98.0463 30.3522 97.8597 30.0205C97.6783 29.6836 97.5876 29.2949 97.5876 28.8544C97.5876 28.4138 97.6757 28.0277 97.8519 27.696C98.0333 27.3592 98.2847 27.1 98.606 26.9186C98.9325 26.7373 99.3057 26.6466 99.7255 26.6466C100.13 26.6466 100.49 26.7347 100.806 26.9109C101.122 27.0871 101.368 27.3358 101.545 27.6572C101.721 27.9733 101.809 28.3387 101.809 28.7533ZM100.884 28.4734C100.879 28.1469 100.762 27.8852 100.534 27.6883C100.306 27.4913 100.023 27.3929 99.6866 27.3929C99.3808 27.3929 99.1191 27.4913 98.9014 27.6883C98.6837 27.88 98.5542 28.1418 98.5127 28.4734H100.884ZM48.8404 41.8961H46.5781L46.1894 43H45.2643L47.2 37.5893H48.2262L50.1619 43H49.2291L48.8404 41.8961ZM48.5916 41.1731L47.7131 38.6621L46.8269 41.1731H48.5916ZM51.8898 37.2472V43H51.0036V37.2472H51.8898ZM59.3874 37.5971V43H58.5012V40.6367H55.959V43H55.0728V37.5971H55.959V39.9137H58.5012V37.5971H59.3874ZM60.2587 40.8388C60.2587 40.4087 60.3468 40.0277 60.523 39.696C60.7044 39.3644 60.948 39.1078 61.2538 38.9264C61.5647 38.7398 61.9068 38.6466 62.2799 38.6466C62.6168 38.6466 62.9096 38.7139 63.1584 38.8487C63.4123 38.9782 63.6145 39.1415 63.7648 39.3384V38.7165H64.6588V43H63.7648V42.3625C63.6145 42.5647 63.4098 42.7331 63.1506 42.8678C62.8915 43.0026 62.5961 43.07 62.2644 43.07C61.8964 43.07 61.5595 42.9767 61.2538 42.7901C60.948 42.5983 60.7044 42.334 60.523 41.9972C60.3468 41.6551 60.2587 41.269 60.2587 40.8388ZM63.7648 40.8544C63.7648 40.559 63.7026 40.3024 63.5782 40.0847C63.459 39.8671 63.3009 39.7012 63.104 39.5872C62.907 39.4732 62.6945 39.4162 62.4665 39.4162C62.2385 39.4162 62.026 39.4732 61.829 39.5872C61.6321 39.696 61.4714 39.8593 61.347 40.077C61.2278 40.2895 61.1682 40.5434 61.1682 40.8388C61.1682 41.1342 61.2278 41.3934 61.347 41.6162C61.4714 41.8391 61.6321 42.0101 61.829 42.1293C62.0312 42.2433 62.2436 42.3003 62.4665 42.3003C62.6945 42.3003 62.907 42.2433 63.104 42.1293C63.3009 42.0153 63.459 41.8494 63.5782 41.6318C63.7026 41.4089 63.7648 41.1498 63.7648 40.8544ZM66.709 39.354C66.8593 39.1467 67.0641 38.9782 67.3232 38.8487C67.5875 38.7139 67.8803 38.6466 68.2017 38.6466C68.58 38.6466 68.9221 38.7373 69.2278 38.9186C69.5336 39.1 69.7746 39.3592 69.9508 39.696C70.127 40.0277 70.2151 40.4087 70.2151 40.8388C70.2151 41.269 70.127 41.6551 69.9508 41.9972C69.7746 42.334 69.531 42.5983 69.2201 42.7901C68.9143 42.9767 68.5748 43.07 68.2017 43.07C67.87 43.07 67.5746 43.0052 67.3154 42.8756C67.0615 42.746 66.8593 42.5802 66.709 42.3781V43H65.8228V37.2472H66.709V39.354ZM69.3133 40.8388C69.3133 40.5434 69.2512 40.2895 69.1268 40.077C69.0076 39.8593 68.8469 39.696 68.6448 39.5872C68.4478 39.4732 68.2353 39.4162 68.0073 39.4162C67.7845 39.4162 67.572 39.4732 67.3698 39.5872C67.1729 39.7012 67.0122 39.8671 66.8879 40.0847C66.7687 40.3024 66.709 40.559 66.709 40.8544C66.709 41.1498 66.7687 41.4089 66.8879 41.6318C67.0122 41.8494 67.1729 42.0153 67.3698 42.1293C67.572 42.2433 67.7845 42.3003 68.0073 42.3003C68.2353 42.3003 68.4478 42.2433 68.6448 42.1293C68.8469 42.0101 69.0076 41.8391 69.1268 41.6162C69.2512 41.3934 69.3133 41.1342 69.3133 40.8388ZM72.1255 39.4395V41.8106C72.1255 41.9712 72.1617 42.0878 72.2343 42.1604C72.312 42.2278 72.4416 42.2615 72.623 42.2615H73.1672V43H72.4675C72.0685 43 71.7627 42.9067 71.5502 42.7201C71.3377 42.5336 71.2315 42.2304 71.2315 41.8106V39.4395H70.7261V38.7165H71.2315V37.6515H72.1255V38.7165H73.1672V39.4395H72.1255ZM75.842 43.07C75.4377 43.07 75.0724 42.9793 74.7459 42.7979C74.4194 42.6113 74.1628 42.3522 73.9762 42.0205C73.7897 41.6836 73.6964 41.2949 73.6964 40.8544C73.6964 40.419 73.7922 40.0329 73.984 39.696C74.1758 39.3592 74.4375 39.1 74.7692 38.9186C75.1009 38.7373 75.4714 38.6466 75.8809 38.6466C76.2903 38.6466 76.6609 38.7373 76.9925 38.9186C77.3242 39.1 77.586 39.3592 77.7777 39.696C77.9695 40.0329 78.0654 40.419 78.0654 40.8544C78.0654 41.2897 77.9669 41.6758 77.77 42.0127C77.573 42.3496 77.3035 42.6113 76.9615 42.7979C76.6246 42.9793 76.2514 43.07 75.842 43.07ZM75.842 42.3003C76.07 42.3003 76.2825 42.2459 76.4795 42.1371C76.6816 42.0282 76.8448 41.865 76.9692 41.6473C77.0936 41.4296 77.1558 41.1653 77.1558 40.8544C77.1558 40.5434 77.0962 40.2817 76.977 40.0692C76.8578 39.8515 76.6997 39.6883 76.5028 39.5794C76.3058 39.4706 76.0934 39.4162 75.8653 39.4162C75.6373 39.4162 75.4248 39.4706 75.2278 39.5794C75.0361 39.6883 74.8832 39.8515 74.7692 40.0692C74.6552 40.2817 74.5982 40.5434 74.5982 40.8544C74.5982 41.3156 74.7148 41.6732 74.948 41.9272C75.1864 42.176 75.4844 42.3003 75.842 42.3003ZM80.7994 43.07C80.3952 43.07 80.0298 42.9793 79.7033 42.7979C79.3768 42.6113 79.1203 42.3522 78.9337 42.0205C78.7471 41.6836 78.6538 41.2949 78.6538 40.8544C78.6538 40.419 78.7497 40.0329 78.9415 39.696C79.1332 39.3592 79.3949 39.1 79.7266 38.9186C80.0583 38.7373 80.4289 38.6466 80.8383 38.6466C81.2477 38.6466 81.6183 38.7373 81.95 38.9186C82.2817 39.1 82.5434 39.3592 82.7352 39.696C82.9269 40.0329 83.0228 40.419 83.0228 40.8544C83.0228 41.2897 82.9243 41.6758 82.7274 42.0127C82.5305 42.3496 82.261 42.6113 81.9189 42.7979C81.582 42.9793 81.2089 43.07 80.7994 43.07ZM80.7994 42.3003C81.0275 42.3003 81.24 42.2459 81.4369 42.1371C81.639 42.0282 81.8023 41.865 81.9267 41.6473C82.0511 41.4296 82.1133 41.1653 82.1133 40.8544C82.1133 40.5434 82.0537 40.2817 81.9345 40.0692C81.8152 39.8515 81.6572 39.6883 81.4602 39.5794C81.2633 39.4706 81.0508 39.4162 80.8228 39.4162C80.5947 39.4162 80.3822 39.4706 80.1853 39.5794C79.9935 39.6883 79.8407 39.8515 79.7266 40.0692C79.6126 40.2817 79.5556 40.5434 79.5556 40.8544C79.5556 41.3156 79.6722 41.6732 79.9054 41.9272C80.1438 42.176 80.4418 42.3003 80.7994 42.3003ZM84.7851 39.3384C84.9147 39.1208 85.0857 38.9523 85.2982 38.8331C85.5159 38.7087 85.7724 38.6466 86.0679 38.6466V39.5639H85.8424C85.4952 39.5639 85.2309 39.652 85.0495 39.8282C84.8733 40.0044 84.7851 40.3102 84.7851 40.7455V43H83.8989V38.7165H84.7851V39.3384ZM92.8122 39.1519C92.6723 38.8824 92.478 38.6802 92.2292 38.5455C91.9804 38.4056 91.6928 38.3356 91.3663 38.3356C91.0087 38.3356 90.6899 38.4159 90.4101 38.5766C90.1302 38.7373 89.9099 38.9653 89.7493 39.2607C89.5938 39.5561 89.5161 39.8982 89.5161 40.2869C89.5161 40.6756 89.5938 41.0202 89.7493 41.3208C89.9099 41.6162 90.1302 41.8443 90.4101 42.0049C90.6899 42.1656 91.0087 42.2459 91.3663 42.2459C91.8483 42.2459 92.2396 42.1112 92.5401 41.8417C92.8407 41.5722 93.0247 41.2068 93.0921 40.7455H91.0631V40.0381H94.0405V40.73C93.9835 41.1498 93.8332 41.5359 93.5896 41.8883C93.3512 42.2407 93.0377 42.5232 92.649 42.7357C92.2655 42.943 91.8379 43.0466 91.3663 43.0466C90.8584 43.0466 90.3945 42.93 89.9747 42.6968C89.5549 42.4584 89.2206 42.1293 88.9719 41.7095C88.7283 41.2897 88.6065 40.8155 88.6065 40.2869C88.6065 39.7582 88.7283 39.284 88.9719 38.8642C89.2206 38.4444 89.5549 38.1179 89.9747 37.8847C90.3997 37.6463 90.8636 37.5271 91.3663 37.5271C91.9415 37.5271 92.452 37.6696 92.8978 37.9547C93.3486 38.2345 93.6752 38.6336 93.8773 39.1519H92.8122ZM95.8009 39.3384C95.9304 39.1208 96.1015 38.9523 96.3139 38.8331C96.5316 38.7087 96.7882 38.6466 97.0836 38.6466V39.5639H96.8581C96.5109 39.5639 96.2466 39.652 96.0652 39.8282C95.889 40.0044 95.8009 40.3102 95.8009 40.7455V43H94.9146V38.7165H95.8009V39.3384ZM99.7562 43.07C99.3519 43.07 98.9866 42.9793 98.6601 42.7979C98.3335 42.6113 98.077 42.3522 97.8904 42.0205C97.7039 41.6836 97.6106 41.2949 97.6106 40.8544C97.6106 40.419 97.7064 40.0329 97.8982 39.696C98.09 39.3592 98.3517 39.1 98.6834 38.9186C99.0151 38.7373 99.3856 38.6466 99.7951 38.6466C100.204 38.6466 100.575 38.7373 100.907 38.9186C101.238 39.1 101.5 39.3592 101.692 39.696C101.884 40.0329 101.98 40.419 101.98 40.8544C101.98 41.2897 101.881 41.6758 101.684 42.0127C101.487 42.3496 101.218 42.6113 100.876 42.7979C100.539 42.9793 100.166 43.07 99.7562 43.07ZM99.7562 42.3003C99.9842 42.3003 100.197 42.2459 100.394 42.1371C100.596 42.0282 100.759 41.865 100.883 41.6473C101.008 41.4296 101.07 41.1653 101.07 40.8544C101.07 40.5434 101.01 40.2817 100.891 40.0692C100.772 39.8515 100.614 39.6883 100.417 39.5794C100.22 39.4706 100.008 39.4162 99.7795 39.4162C99.5515 39.4162 99.339 39.4706 99.142 39.5794C98.9503 39.6883 98.7974 39.8515 98.6834 40.0692C98.5694 40.2817 98.5123 40.5434 98.5123 40.8544C98.5123 41.3156 98.629 41.6732 98.8622 41.9272C99.1006 42.176 99.3986 42.3003 99.7562 42.3003ZM106.735 38.7165V43H105.849V42.4947C105.709 42.6709 105.525 42.8108 105.297 42.9145C105.074 43.013 104.835 43.0622 104.581 43.0622C104.245 43.0622 103.941 42.9922 103.672 42.8523C103.408 42.7124 103.198 42.5051 103.042 42.2304C102.892 41.9557 102.817 41.624 102.817 41.2353V38.7165H103.695V41.1031C103.695 41.4867 103.791 41.7821 103.983 41.9894C104.175 42.1915 104.436 42.2926 104.768 42.2926C105.1 42.2926 105.361 42.1915 105.553 41.9894C105.75 41.7821 105.849 41.4867 105.849 41.1031V38.7165H106.735ZM108.79 39.3462C108.941 39.1493 109.145 38.9834 109.405 38.8487C109.664 38.7139 109.957 38.6466 110.283 38.6466C110.656 38.6466 110.996 38.7398 111.301 38.9264C111.612 39.1078 111.856 39.3644 112.032 39.696C112.208 40.0277 112.297 40.4087 112.297 40.8388C112.297 41.269 112.208 41.6551 112.032 41.9972C111.856 42.334 111.612 42.5983 111.301 42.7901C110.996 42.9767 110.656 43.07 110.283 43.07C109.957 43.07 109.666 43.0052 109.412 42.8756C109.158 42.7409 108.951 42.575 108.79 42.3781V45.0368H107.904V38.7165H108.79V39.3462ZM111.395 40.8388C111.395 40.5434 111.333 40.2895 111.208 40.077C111.089 39.8593 110.928 39.696 110.726 39.5872C110.529 39.4732 110.317 39.4162 110.089 39.4162C109.866 39.4162 109.653 39.4732 109.451 39.5872C109.254 39.7012 109.094 39.8671 108.969 40.0847C108.85 40.3024 108.79 40.559 108.79 40.8544C108.79 41.1498 108.85 41.4089 108.969 41.6318C109.094 41.8494 109.254 42.0153 109.451 42.1293C109.653 42.2433 109.866 42.3003 110.089 42.3003C110.317 42.3003 110.529 42.2433 110.726 42.1293C110.928 42.0101 111.089 41.8391 111.208 41.6162C111.333 41.3934 111.395 41.1342 111.395 40.8388Z" fill="black"/>
<path d="M5.51029 12.3395C5.39176 12.4673 5.29102 12.7082 5.29102 12.8866V26.4333C5.29102 26.6027 5.39177 26.6473 5.51326 26.5254L10.856 21.1912C10.9775 21.0693 11.0723 20.8255 11.0723 20.653V12.8866C11.0723 12.7082 11.176 12.4673 11.2946 12.3395L17.5322 5.75942C17.6478 5.63156 17.7485 5.38775 17.7485 5.22124V0.0892011L17.5293 0L5.50733 12.3365" fill="#009046"/>
<path d="M17.7231 12.5684H12.1699V17.8877H17.7231V12.5684Z" fill="#009046"/>
<path d="M31.1426 0.0878906L25.8976 5.30616C25.7732 5.42806 25.6754 5.67188 25.6754 5.84434V12.252C25.6754 12.4244 25.5361 12.5671 25.3643 12.5671H24.905C24.7331 12.5671 24.5938 12.4244 24.5938 12.252V5.84434C24.5938 5.67188 24.4901 5.42806 24.3686 5.30616L19.1266 0.0878906H18.8125V20.6488C18.8125 20.8212 18.9133 21.065 19.0347 21.1869L24.3656 26.5212C24.4871 26.6371 24.5909 26.5985 24.5909 26.429V18.2195C24.5909 18.0441 24.7301 17.9073 24.902 17.9073H25.3583C25.5272 17.9073 25.6724 18.0441 25.6724 18.2195V26.429C25.6724 26.5985 25.7702 26.6431 25.8947 26.5212L31.2315 21.1869C31.356 21.065 31.4597 20.8212 31.4597 20.6488V0.0878906H31.1396" fill="#009046"/>
<path d="M36.7622 30.1913H0V30.5392H36.7622V30.1913Z" fill="black"/>
<path d="M1.49436 39.0684L0.00976562 42.6661H1.2099L1.43214 42.0655H2.94043L3.15083 42.6661H4.50504L3.02341 39.0684H1.49733M1.74032 41.2776L2.20555 40.0169L2.653 41.2776H1.74032Z" fill="black"/>
<path d="M6.17402 39.0684H4.9502V42.6632H7.5134V41.786H6.17402V39.0684Z" fill="black"/>
<path d="M10.551 40.3975H9.25605V39.0684H8.03223V42.6632H9.25605V41.2746H10.551V42.6632H11.7748V39.0684H10.551V40.3975Z" fill="black"/>
<path d="M13.6213 39.0684L12.1396 42.6661H13.3398L13.562 42.0655H15.0703L15.2807 42.6661H16.626L15.1503 39.0684H13.6242M13.8584 41.2776L14.3295 40.0169L14.7829 41.2776H13.8584Z" fill="black"/>
<path d="M20.1874 41.0626C20.0185 40.9258 19.8259 40.8544 19.6096 40.8455V40.8336C19.8081 40.7771 19.974 40.6849 20.1104 40.5511C20.2437 40.4322 20.3089 40.2449 20.3089 40.0011C20.3207 39.3796 19.897 39.0704 19.0347 39.0645H17.0078V42.6622H19.2006C19.5088 42.6622 19.734 42.6414 19.8822 42.5938L20.0807 42.5076L20.223 42.3798C20.3682 42.24 20.4363 42.017 20.4422 41.7345C20.4363 41.4313 20.3504 41.2023 20.1904 41.0596M18.2287 39.7275H18.6198L18.8776 39.7483L19.0347 39.8286C19.1028 39.897 19.1325 39.9981 19.1295 40.123C19.1295 40.2419 19.094 40.3371 19.0199 40.4114C18.9458 40.4828 18.8095 40.5184 18.6228 40.5184H18.2287V39.7275ZM19.1058 41.9129C19.008 41.9843 18.848 42.017 18.6228 42.017H18.2287V41.1577H18.6228C18.848 41.1577 19.011 41.1845 19.1058 41.2558C19.2006 41.3242 19.2451 41.4402 19.2451 41.5888C19.2451 41.7375 19.2036 41.8446 19.1058 41.9129Z" fill="black"/>
<path d="M20.7939 39.9396H21.754V42.6632H22.969V39.9396H23.9291V39.0684H20.7939V39.9396Z" fill="black"/>
<path d="M26.1784 38.9746C25.805 38.9746 25.5205 39.0073 25.3101 39.0787C25.0968 39.1441 24.9249 39.2422 24.7886 39.3701C24.4241 39.6644 24.2375 40.161 24.2286 40.8627C24.2256 41.4098 24.3678 41.8588 24.6642 42.2126C24.9694 42.5694 25.4731 42.7508 26.1754 42.7567C26.9162 42.7508 27.4348 42.5367 27.737 42.1353C27.986 41.8469 28.1134 41.4217 28.1164 40.8686C28.1164 40.3126 27.9741 39.8636 27.6807 39.5158C27.3844 39.159 26.8807 38.9806 26.1754 38.9746M26.1754 41.9361C25.965 41.9361 25.7991 41.8499 25.6746 41.6715C25.5442 41.499 25.4761 41.2314 25.4761 40.8657C25.4761 40.4999 25.5442 40.2205 25.6746 40.048C25.8021 39.8726 25.965 39.7863 26.1754 39.7863C26.6169 39.7863 26.851 40.1431 26.8658 40.8657C26.851 41.5882 26.6169 41.942 26.1754 41.9361Z" fill="black"/>
<path d="M30.5897 38.9746C30.2223 38.9746 29.9349 39.0073 29.7245 39.0787C29.5141 39.1441 29.3333 39.2422 29.2059 39.3701C28.8385 39.6644 28.6518 40.161 28.6488 40.8627C28.6399 41.4098 28.7881 41.8588 29.0903 42.2126C29.3896 42.5694 29.8904 42.7508 30.5897 42.7567C31.3335 42.7508 31.8521 42.5367 32.1544 42.1353C32.4092 41.8469 32.5307 41.4217 32.5366 40.8686C32.5366 40.3126 32.3973 39.8636 32.101 39.5158C31.8017 39.159 31.298 38.9806 30.5897 38.9746ZM30.5897 41.9361C30.3853 41.9361 30.2223 41.8499 30.0949 41.6715C29.9586 41.499 29.8904 41.2314 29.8904 40.8657C29.8904 40.4999 29.9586 40.2205 30.0949 40.048C30.2223 39.8726 30.3853 39.7863 30.5897 39.7863C31.0402 39.7863 31.2772 40.1431 31.292 40.8657C31.2772 41.5882 31.0402 41.942 30.5897 41.9361Z" fill="black"/>
<path d="M36.5869 41.4574C36.5632 41.273 36.4921 41.1481 36.3943 41.0708C36.2906 40.9965 36.1691 40.9608 36.0239 40.9608V40.9103C36.2106 40.8716 36.3617 40.7765 36.4743 40.6308C36.5958 40.4881 36.6521 40.2918 36.6521 40.0629C36.6521 39.6644 36.5365 39.4058 36.2995 39.2601C36.0743 39.1233 35.7453 39.0608 35.3394 39.0668H33.2266V42.6646H34.4504V41.3593H34.8326C35.046 41.3563 35.1794 41.383 35.2475 41.4425C35.3186 41.502 35.3601 41.6507 35.3749 41.8618L35.4846 42.6646H36.7439L36.5899 41.4604M35.3186 40.5654C35.2268 40.6367 35.1053 40.6605 34.9571 40.6605H34.4534V39.7893H34.9334C35.2771 39.7893 35.4549 39.9261 35.4549 40.2205C35.4549 40.387 35.4075 40.5 35.3216 40.5624" fill="black"/>
<path d="M2.37061 37.6257C2.56322 37.4949 2.661 37.3106 2.68174 37.0727V34.1112H1.46682V36.7367C1.46682 36.8705 1.36309 36.9389 1.22974 36.9389L0 36.9448V37.816H1.56164C1.86982 37.816 2.1691 37.7566 2.36764 37.6287" fill="black"/>
<path d="M36.7561 32.7871H35.5293V36.4027H36.7561V32.7871Z" fill="black"/>
<path d="M6.13864 37.1511V36.4018H33.9429C34.7519 36.4018 35.0067 36.1461 35.0067 35.6257V32.7832H33.7799V35.2452L33.691 35.5068H32.0049V34.7248C32.0049 34.2729 31.673 34.0499 31.0122 34.0439H29.0891V34.9211H30.787C30.9085 34.9211 31.0033 35.0162 31.0033 35.1411V35.5068H24.4219V34.1064H23.1981V35.5068H16.2167V34.1064H14.9899V35.5068H6.13567C6.1416 35.3552 6.1416 34.142 6.13567 34.1064H4.22142C3.92509 34.0885 3.67617 34.1688 3.49245 34.3323C3.30873 34.5107 3.21686 34.9062 3.21094 35.3254C3.21686 35.709 3.30577 35.9885 3.4806 36.152C3.6584 36.3156 3.88361 36.3958 4.16512 36.4018H5.13411V36.7378C5.13411 36.8597 5.0363 36.934 4.91481 36.934H3.2139V37.8112H5.14002C5.80083 37.8231 6.13864 37.6001 6.13864 37.1511ZM5.14002 35.7209H4.9089C4.71036 35.7209 4.56515 35.6882 4.47922 35.6257C4.39921 35.5603 4.36068 35.4414 4.36068 35.2898C4.36068 35.156 4.39328 35.0519 4.45551 34.9805C4.5207 34.9092 4.63331 34.8794 4.79629 34.8794H5.13705V35.7209H5.14002Z" fill="black"/>
<path d="M24.4191 36.8105H23.1953V37.7204H24.4191V36.8105Z" fill="black"/>
<path d="M15.3909 32.7969H14.1641V33.7038H15.3909V32.7969Z" fill="black"/>
<path d="M17.0177 32.7966H15.791V33.7035H17.0177V32.7966Z" fill="black"/>
</svg>
