<svg width="18" height="17" viewBox="0 0 18 17" fill="none" xmlns="http://www.w3.org/2000/svg">
<g clip-path="url(#clip0_1_2369)">
<path d="M17.1492 5.09527C17.1492 5.09527 16.9834 3.92433 16.4725 3.41018C15.8257 2.7335 15.1026 2.73018 14.7709 2.69037C12.3958 2.51788 8.82994 2.51788 8.82994 2.51788H8.8233C8.8233 2.51788 5.25742 2.51788 2.88237 2.69037C2.55066 2.73018 1.82753 2.7335 1.1807 3.41018C0.669866 3.92433 0.507328 5.09527 0.507328 5.09527C0.507328 5.09527 0.334839 6.47187 0.334839 7.84515V9.13218C0.334839 10.5055 0.504011 11.8821 0.504011 11.8821C0.504011 11.8821 0.669866 13.053 1.17738 13.5672C1.82422 14.2438 2.6734 14.2206 3.05155 14.2936C4.41156 14.423 8.82662 14.4628 8.82662 14.4628C8.82662 14.4628 12.3958 14.4561 14.7709 14.287C15.1026 14.2472 15.8257 14.2438 16.4725 13.5672C16.9834 13.053 17.1492 11.8821 17.1492 11.8821C17.1492 11.8821 17.3184 10.5088 17.3184 9.13218V7.84515C17.3184 6.47187 17.1492 5.09527 17.1492 5.09527ZM7.07187 10.6945V5.92123L11.6594 8.31618L7.07187 10.6945Z" fill="black"/>
</g>
<defs>
<clipPath id="clip0_1_2369">
<rect width="16.9836" height="16.9836" fill="white" transform="translate(0.334839 0.00012207)"/>
</clipPath>
</defs>
</svg>
