<svg width="57" height="66" viewBox="0 0 57 66" fill="none" xmlns="http://www.w3.org/2000/svg">
<path d="M8.50645 19.0473C8.32348 19.2446 8.16797 19.6164 8.16797 19.8918V40.8025C8.16797 41.0641 8.32349 41.133 8.51103 40.9448L16.7581 32.7108C16.9457 32.5227 17.092 32.1463 17.092 31.8801V19.8918C17.092 19.6164 17.2521 19.2446 17.4351 19.0473L27.0636 8.89026C27.242 8.69291 27.3975 8.31655 27.3975 8.05953V0.137691L27.059 0L8.50187 19.0427" fill="#009046"/>
<path d="M48.0719 0.136719L39.9757 8.19166C39.7836 8.37984 39.6327 8.75619 39.6327 9.0224V18.9132C39.6327 19.1794 39.4177 19.3997 39.1524 19.3997H38.4434C38.1781 19.3997 37.9631 19.1794 37.9631 18.9132V9.0224C37.9631 8.75619 37.803 8.37984 37.6155 8.19166L29.5239 0.136719H29.0391V31.8746C29.0391 32.1408 29.1946 32.5171 29.3821 32.7053L37.6109 40.9392C37.7985 41.1182 37.9586 41.0586 37.9586 40.797V28.1248C37.9586 27.854 38.1735 27.6428 38.4388 27.6428H39.1433C39.404 27.6428 39.6281 27.854 39.6281 28.1248V40.797C39.6281 41.0586 39.7791 41.1274 39.9712 40.9392L48.2091 32.7053C48.4012 32.5171 48.5613 32.1408 48.5613 31.8746V0.136719H48.0673" fill="#009046"/>
<path d="M2.30725 60.3047L0.015625 65.8582H1.86816L2.21121 64.9311H4.53941L4.86418 65.8582H6.95455L4.6675 60.3047H2.31183M2.68691 63.7148L3.40505 61.7688L4.09574 63.7148H2.68691Z" fill="white"/>
<path d="M9.52973 60.3047H7.64062V65.8536H11.5972V64.4997H9.52973V60.3047Z" fill="white"/>
<path d="M16.2864 62.3563H14.2875V60.3047H12.3984V65.8536H14.2875V63.7102H16.2864V65.8536H18.1755V60.3047H16.2864V62.3563Z" fill="white"/>
<path d="M21.0253 60.3047L18.7383 65.8582H20.5908L20.9339 64.9311H23.2621L23.5868 65.8582H25.6635L23.3856 60.3047H21.0299M21.3913 63.7148L22.1185 61.7688L22.8184 63.7148H21.3913Z" fill="white"/>
<path d="M31.1619 63.3851C30.9012 63.1739 30.6039 63.0638 30.27 63.05V63.0317C30.5764 62.9445 30.8326 62.8022 31.043 62.5956C31.2488 62.412 31.3495 62.1229 31.3495 61.7465C31.3678 60.7873 30.7137 60.31 29.3826 60.3008H26.2539V65.8543H29.6387C30.1145 65.8543 30.4621 65.8222 30.6908 65.7488L30.9973 65.6157L31.2168 65.4183C31.4409 65.2026 31.5461 64.8584 31.5553 64.4223C31.5461 63.9542 31.4135 63.6008 31.1665 63.3805M28.1385 61.3243H28.7422L29.1402 61.3564L29.3826 61.4803C29.4878 61.5859 29.5335 61.7419 29.529 61.9347C29.529 62.1183 29.4741 62.2652 29.3597 62.3799C29.2454 62.4901 29.035 62.5451 28.7468 62.5451H28.1385V61.3243ZM29.4924 64.6977C29.3414 64.8079 29.0944 64.8584 28.7468 64.8584H28.1385V63.5319H28.7468C29.0944 63.5319 29.346 63.5732 29.4924 63.6834C29.6387 63.789 29.7074 63.968 29.7074 64.1974C29.7074 64.4269 29.6433 64.5922 29.4924 64.6977Z" fill="white"/>
<path d="M32.0977 61.6495H33.5797V65.8536H35.4551V61.6495H36.9371V60.3047H32.0977V61.6495Z" fill="white"/>
<path d="M40.4082 60.1621C39.8319 60.1621 39.3928 60.2126 39.068 60.3228C38.7387 60.4237 38.4734 60.5752 38.263 60.7725C37.7004 61.2269 37.4122 61.9934 37.3985 63.0766C37.3939 63.9211 37.6135 64.6141 38.0709 65.1603C38.542 65.7111 39.3196 65.991 40.4037 66.0002C41.5472 65.991 42.3477 65.6606 42.8142 65.041C43.1984 64.5958 43.3951 63.9394 43.3997 63.0858C43.3997 62.2275 43.1802 61.5344 42.7273 60.9974C42.2699 60.4467 41.4923 60.1713 40.4037 60.1621M40.4037 64.7335C40.0789 64.7335 39.8228 64.6004 39.6307 64.325C39.4294 64.0588 39.3242 63.6457 39.3242 63.0812C39.3242 62.5166 39.4294 62.0852 39.6307 61.819C39.8274 61.5482 40.0789 61.4151 40.4037 61.4151C41.0852 61.4151 41.4466 61.9659 41.4694 63.0812C41.4466 64.1965 41.0852 64.7426 40.4037 64.7335Z" fill="white"/>
<path d="M47.2193 60.1621C46.6521 60.1621 46.2084 60.2126 45.8836 60.3228C45.5589 60.4237 45.2799 60.5752 45.0832 60.7725C44.516 61.2269 44.2278 61.9934 44.2232 63.0766C44.2095 63.9211 44.4382 64.6141 44.9048 65.1603C45.3668 65.7111 46.1398 65.991 47.2193 66.0002C48.3674 65.991 49.1678 65.6606 49.6344 65.041C50.0278 64.5958 50.2153 63.9394 50.2245 63.0858C50.2245 62.2275 50.0095 61.5344 49.5521 60.9974C49.0901 60.4467 48.3125 60.1713 47.2193 60.1621ZM47.2193 64.7335C46.9037 64.7335 46.6521 64.6004 46.4554 64.325C46.245 64.0588 46.1398 63.6457 46.1398 63.0812C46.1398 62.5166 46.245 62.0852 46.4554 61.819C46.6521 61.5482 46.9037 61.4151 47.2193 61.4151C47.9145 61.4151 48.2805 61.9659 48.3033 63.0812C48.2805 64.1965 47.9145 64.7426 47.2193 64.7335Z" fill="white"/>
<path d="M56.4761 63.9935C56.4395 63.7089 56.3297 63.5161 56.1788 63.3968C56.0187 63.282 55.8311 63.227 55.607 63.227V63.1489C55.8952 63.0893 56.1284 62.9424 56.3023 62.7175C56.4898 62.4972 56.5767 62.1943 56.5767 61.8409C56.5767 61.2259 56.3983 60.8266 56.0324 60.6017C55.6848 60.3905 55.177 60.2942 54.5504 60.3033H51.2891V65.8569H53.1782V63.842H53.7682C54.0976 63.8374 54.3034 63.8787 54.4086 63.9705C54.5184 64.0623 54.5824 64.2918 54.6053 64.6177L54.7745 65.8569H56.7185L56.4807 63.998M54.5184 62.6165C54.3766 62.7267 54.189 62.7634 53.9603 62.7634H53.1827V61.4186H53.9237C54.4543 61.4186 54.7288 61.6298 54.7288 62.0841C54.7288 62.3412 54.6556 62.5156 54.523 62.612" fill="white"/>
<path d="M3.65928 58.0793C3.95659 57.8774 4.10753 57.5928 4.13955 57.2256V52.6543H2.26418V56.707C2.26418 56.9135 2.10407 57.0191 1.89823 57.0191L0 57.0283V58.3731H2.41056C2.88626 58.3731 3.34823 58.2813 3.6547 58.0839" fill="white"/>
<path d="M56.7374 50.6113H54.8438V56.1924H56.7374V50.6113Z" fill="white"/>
<path d="M9.47624 57.3478V56.1911H52.395C53.6437 56.1911 54.0371 55.7964 54.0371 54.9932V50.6055H52.1434V54.4057L52.0062 54.8096H49.4036V53.6025C49.4036 52.9049 48.8912 52.5607 47.8712 52.5515H44.9026V53.9055H47.5236C47.7111 53.9055 47.8575 54.0523 47.8575 54.2451V54.8096H37.6984V52.6479H35.8093V54.8096H25.0327V52.6479H23.1391V54.8096H9.47166C9.48081 54.5756 9.48081 52.703 9.47166 52.6479H6.51681C6.0594 52.6203 5.67517 52.7443 5.39158 52.9967C5.10798 53.2721 4.96618 53.8825 4.95703 54.5297C4.96618 55.1217 5.10342 55.5532 5.37329 55.8056C5.64774 56.058 5.99537 56.182 6.42991 56.1911H7.92564V56.7098C7.92564 56.898 7.77468 57.0127 7.58714 57.0127H4.96161V58.3667H7.93477C8.9548 58.385 9.47624 58.0408 9.47624 57.3478ZM7.93477 55.1401H7.57801C7.27154 55.1401 7.04741 55.0896 6.91476 54.9932C6.79126 54.8923 6.73178 54.7087 6.73178 54.4746C6.73178 54.2681 6.7821 54.1074 6.87816 53.9973C6.97879 53.8871 7.15261 53.8412 7.40419 53.8412H7.93019V55.1401H7.93477Z" fill="white"/>
<path d="M56.7463 46.6035H0V47.1405H56.7463V46.6035Z" fill="white"/>
</svg>
