<svg width="275" height="23" viewBox="0 0 275 23" fill="none" xmlns="http://www.w3.org/2000/svg">
<path d="M17.9823 20.4331C16.4512 21.2013 14.9201 21.7616 13.452 22.105C11.966 22.4755 10.4529 22.6563 8.95781 22.6563C7.24658 22.6563 5.77852 22.4032 4.4996 21.8791C3.22068 21.364 2.20294 20.6048 1.44639 19.5656C0.671837 18.5263 0.203512 17.2972 0.0504019 15.8784C-0.0937016 14.4776 0.0684028 12.9594 0.572765 11.3417C1.60851 7.9437 3.56291 5.20543 6.45399 3.11783C9.35407 1.03928 12.6504 0 16.3701 0C17.6941 0 18.955 0.153636 20.1258 0.433789C21.3057 0.72298 22.4045 1.17484 23.4672 1.78033L21.9001 6.91347C20.9364 6.11819 19.9007 5.53981 18.8019 5.15121C17.7031 4.78069 16.5412 4.58186 15.3254 4.58186C13.1188 4.58186 11.2094 5.16928 9.58825 6.38931C7.95808 7.58222 6.81426 9.22699 6.18381 11.3417C5.57137 13.3841 5.66145 15.0108 6.50805 16.2489C7.33665 17.4689 8.77767 18.0744 10.8041 18.0744C12.1101 18.0744 13.4971 17.8485 14.9561 17.3876C16.4242 16.9267 17.9463 16.2308 19.5224 15.3271L17.9823 20.4331Z" fill="black"/>
<path d="M25.1064 22.2675L41.291 0.379395H47.5775L49.4058 22.2675H43.6237L43.3625 18.011H33.9687L30.9426 22.2675H25.1154M36.6977 14.2606H43.1283L42.6059 5.94631L36.6977 14.2606Z" fill="black"/>
<path d="M57.2236 22.2675L63.8884 0.379395H71.9583C74.9124 0.379395 76.9568 0.903554 78.0556 1.9338C79.1544 2.97307 79.3616 4.56362 78.7041 6.74159C78.3528 7.95258 77.7044 8.98282 76.8397 9.84136C75.9391 10.7089 74.7683 11.4229 73.2912 12.0103C73.7775 12.2181 74.1558 12.5344 74.444 13.0044C74.7412 13.4743 74.9304 14.0617 75.0385 14.7666L76.2363 22.2585H70.0849L69.2203 15.9595C69.0762 14.9564 68.788 14.2696 68.3376 13.881C67.8693 13.5105 67.1218 13.3297 66.077 13.3297H65.7348L65.4286 13.3478L62.7266 22.2585H57.2326M69.2743 9.35334C70.265 9.35334 71.0846 9.14549 71.706 8.72074C72.3455 8.29599 72.7868 7.64531 73.039 6.78678C73.3002 5.96439 73.2282 5.33179 72.8409 4.90704C72.4536 4.47325 71.7871 4.27444 70.8144 4.27444H68.2025L66.6444 9.36237H69.2653L69.2743 9.35334Z" fill="black"/>
<path d="M107.849 22.2675L114.514 0.379395H122.566C125.547 0.379395 127.573 0.903554 128.672 1.9338C129.771 2.97307 129.987 4.56362 129.311 6.74159C128.942 7.95258 128.33 8.98282 127.438 9.84136C126.555 10.7089 125.376 11.4229 123.917 12.0103C124.385 12.2181 124.763 12.5344 125.06 13.0044C125.349 13.4743 125.565 14.0617 125.655 14.7666L126.853 22.2585H120.692L119.846 15.9595C119.683 14.9564 119.395 14.2696 118.936 13.881C118.477 13.5105 117.738 13.3297 116.675 13.3297H116.333L116.018 13.3478L113.307 22.2585H107.831M119.864 9.35334C120.854 9.35334 121.674 9.14549 122.295 8.72074C122.917 8.29599 123.358 7.64531 123.619 6.78678C123.88 5.96439 123.817 5.33179 123.439 4.90704C123.043 4.47325 122.376 4.27444 121.404 4.27444H118.792L117.234 9.36237H119.864V9.35334Z" fill="black"/>
<path d="M136.417 22.2675L143.073 0.379395H157.655L156.421 4.40999H147.306L145.955 8.87437H154.656L153.431 12.9411H144.703L143.118 18.1646H152.503L151.26 22.2675H136.417Z" fill="black"/>
<path d="M173.704 8.52192L169.516 22.2675H164.104L170.786 0.379395H175.578L183.287 13.4382L187.277 0.379395H192.672L185.989 22.2675H181.72L173.704 8.52192Z" fill="black"/>
<path d="M203.651 22.2675L209.064 4.46422H201.849L203.092 0.379395H223.276L222.033 4.46422H214.828L209.388 22.2675H203.651Z" fill="black"/>
<path d="M225.5 22.2675L241.685 0.379395H247.981L249.818 22.2675H244.036L243.774 18.011H234.372L231.337 22.2675H225.518M237.101 14.2606H243.54L243.027 5.94631L237.101 14.2606Z" fill="black"/>
<path d="M258.851 22.2675L265.525 0.379395H270.974L265.597 18.0471H275L273.721 22.2675H258.851Z" fill="black"/>
</svg>
