<svg width="114" height="29" viewBox="0 0 114 29" fill="none" xmlns="http://www.w3.org/2000/svg">
<rect width="114" height="29" rx="14.5" fill="black"/>
<circle cx="15" cy="14" r="9" fill="white"/>
<path d="M16.173 9.5C16.7181 9.5 17.16 9.9419 17.16 10.487V16.36C17.16 17.312 16.8847 18.054 16.334 18.586C15.7833 19.1087 15.046 19.37 14.122 19.37C13.1887 19.37 12.4327 19.0993 11.854 18.558C11.4935 18.2153 11.2472 17.7865 11.1149 17.2717C10.9788 16.7416 11.4436 16.29 11.9909 16.29C12.5296 16.29 12.9035 16.7695 13.2107 17.212C13.2246 17.2319 13.239 17.2513 13.254 17.27C13.45 17.5033 13.73 17.62 14.094 17.62C14.4487 17.62 14.7193 17.508 14.906 17.284C15.0927 17.06 15.186 16.752 15.186 16.36V10.487C15.186 9.9419 15.6279 9.5 16.173 9.5Z" fill="black"/>
<path d="M37.992 9.242V16.452C37.992 17.2547 37.7447 17.8987 37.25 18.384C36.7553 18.86 36.102 19.098 35.29 19.098C34.4687 19.098 33.8107 18.8553 33.316 18.37C32.8213 17.8753 32.574 17.2033 32.574 16.354H33.848C33.8573 16.83 33.9787 17.2173 34.212 17.516C34.4547 17.8147 34.814 17.964 35.29 17.964C35.766 17.964 36.1207 17.824 36.354 17.544C36.5873 17.2547 36.704 16.8907 36.704 16.452V9.242H37.992ZM44.3098 11.188C44.8885 11.188 45.4112 11.314 45.8778 11.566C46.3445 11.8087 46.7085 12.1773 46.9698 12.672C47.2405 13.1667 47.3758 13.7687 47.3758 14.478V19H46.1158V14.66C46.1158 13.8947 45.9245 13.3113 45.5418 12.91C45.1592 12.4993 44.6365 12.294 43.9738 12.294C43.3018 12.294 42.7652 12.504 42.3638 12.924C41.9718 13.344 41.7758 13.9553 41.7758 14.758V19H40.5018V8.64H41.7758V12.42C42.0278 12.028 42.3732 11.7247 42.8118 11.51C43.2598 11.2953 43.7592 11.188 44.3098 11.188ZM52.8029 19.126C52.0842 19.126 51.4309 18.9627 50.8429 18.636C50.2642 18.3093 49.8069 17.8473 49.4709 17.25C49.1442 16.6433 48.9809 15.9433 48.9809 15.15C48.9809 14.366 49.1489 13.6753 49.4849 13.078C49.8302 12.4713 50.2969 12.0093 50.8849 11.692C51.4729 11.3653 52.1309 11.202 52.8589 11.202C53.5869 11.202 54.2449 11.3653 54.8329 11.692C55.4209 12.0093 55.8829 12.4667 56.2189 13.064C56.5642 13.6613 56.7369 14.3567 56.7369 15.15C56.7369 15.9433 56.5596 16.6433 56.2049 17.25C55.8596 17.8473 55.3882 18.3093 54.7909 18.636C54.1936 18.9627 53.5309 19.126 52.8029 19.126ZM52.8029 18.006C53.2602 18.006 53.6896 17.8987 54.0909 17.684C54.4922 17.4693 54.8142 17.1473 55.0569 16.718C55.3089 16.2887 55.4349 15.766 55.4349 15.15C55.4349 14.534 55.3136 14.0113 55.0709 13.582C54.8282 13.1527 54.5109 12.8353 54.1189 12.63C53.7269 12.4153 53.3022 12.308 52.8449 12.308C52.3782 12.308 51.9489 12.4153 51.5569 12.63C51.1742 12.8353 50.8662 13.1527 50.6329 13.582C50.3996 14.0113 50.2829 14.534 50.2829 15.15C50.2829 15.7753 50.3949 16.3027 50.6189 16.732C50.8522 17.1613 51.1602 17.4833 51.5429 17.698C51.9256 17.9033 52.3456 18.006 52.8029 18.006ZM62.15 11.188C63.0833 11.188 63.8393 11.4727 64.418 12.042C64.9967 12.602 65.286 13.414 65.286 14.478V19H64.026V14.66C64.026 13.8947 63.8347 13.3113 63.452 12.91C63.0693 12.4993 62.5467 12.294 61.884 12.294C61.212 12.294 60.6753 12.504 60.274 12.924C59.882 13.344 59.686 13.9553 59.686 14.758V19H58.412V11.328H59.686V12.42C59.938 12.028 60.2787 11.7247 60.708 11.51C61.1467 11.2953 61.6273 11.188 62.15 11.188ZM74.1375 9.242C75.2015 9.242 76.1208 9.44267 76.8955 9.844C77.6795 10.236 78.2768 10.8007 78.6875 11.538C79.1075 12.2753 79.3175 13.1433 79.3175 14.142C79.3175 15.1407 79.1075 16.0087 78.6875 16.746C78.2768 17.474 77.6795 18.034 76.8955 18.426C76.1208 18.8087 75.2015 19 74.1375 19H71.0995V9.242H74.1375ZM74.1375 17.95C75.3975 17.95 76.3588 17.6187 77.0215 16.956C77.6842 16.284 78.0155 15.346 78.0155 14.142C78.0155 12.9287 77.6795 11.9813 77.0075 11.3C76.3448 10.6187 75.3882 10.278 74.1375 10.278H72.3735V17.95H74.1375ZM84.3439 19.126C83.6253 19.126 82.9719 18.9627 82.3839 18.636C81.8053 18.3093 81.3479 17.8473 81.0119 17.25C80.6853 16.6433 80.5219 15.9433 80.5219 15.15C80.5219 14.366 80.6899 13.6753 81.0259 13.078C81.3713 12.4713 81.8379 12.0093 82.4259 11.692C83.0139 11.3653 83.6719 11.202 84.3999 11.202C85.1279 11.202 85.7859 11.3653 86.3739 11.692C86.9619 12.0093 87.4239 12.4667 87.7599 13.064C88.1053 13.6613 88.2779 14.3567 88.2779 15.15C88.2779 15.9433 88.1006 16.6433 87.7459 17.25C87.4006 17.8473 86.9293 18.3093 86.3319 18.636C85.7346 18.9627 85.0719 19.126 84.3439 19.126ZM84.3439 18.006C84.8013 18.006 85.2306 17.8987 85.6319 17.684C86.0333 17.4693 86.3553 17.1473 86.5979 16.718C86.8499 16.2887 86.9759 15.766 86.9759 15.15C86.9759 14.534 86.8546 14.0113 86.6119 13.582C86.3693 13.1527 86.0519 12.8353 85.6599 12.63C85.2679 12.4153 84.8433 12.308 84.3859 12.308C83.9193 12.308 83.4899 12.4153 83.0979 12.63C82.7153 12.8353 82.4073 13.1527 82.1739 13.582C81.9406 14.0113 81.8239 14.534 81.8239 15.15C81.8239 15.7753 81.9359 16.3027 82.1599 16.732C82.3933 17.1613 82.7013 17.4833 83.0839 17.698C83.4666 17.9033 83.8866 18.006 84.3439 18.006ZM96.953 14.87C96.953 15.1127 96.939 15.3693 96.911 15.64H90.779C90.8257 16.396 91.0823 16.9887 91.549 17.418C92.025 17.838 92.599 18.048 93.271 18.048C93.8217 18.048 94.279 17.922 94.643 17.67C95.0163 17.4087 95.2777 17.0633 95.427 16.634H96.799C96.5937 17.3713 96.183 17.9733 95.567 18.44C94.951 18.8973 94.1857 19.126 93.271 19.126C92.543 19.126 91.8897 18.9627 91.311 18.636C90.7417 18.3093 90.2937 17.8473 89.967 17.25C89.6403 16.6433 89.477 15.9433 89.477 15.15C89.477 14.3567 89.6357 13.6613 89.953 13.064C90.2703 12.4667 90.7137 12.0093 91.283 11.692C91.8617 11.3653 92.5243 11.202 93.271 11.202C93.999 11.202 94.643 11.3607 95.203 11.678C95.763 11.9953 96.1923 12.434 96.491 12.994C96.799 13.5447 96.953 14.17 96.953 14.87ZM95.637 14.604C95.637 14.1187 95.5297 13.7033 95.315 13.358C95.1003 13.0033 94.8063 12.7373 94.433 12.56C94.069 12.3733 93.663 12.28 93.215 12.28C92.571 12.28 92.0203 12.4853 91.563 12.896C91.115 13.3067 90.8583 13.876 90.793 14.604H95.637Z" fill="white"/>
</svg>
